# xmcd
#
# Track frame offsets: 
#        150
#        10060
#        23041
#        33747
#        47504
#        61550
#        83270
#        96579
#        110521
#        125023
#        135996
#        150732
#        170869
#        185124
#        195312
#        212448
#        226505
#        241750
#        252242
#        266775
#        275344
#        287481
#        299119
#        312666
#        323238
#
# Disc length: 4571 seconds
#
# Revision: 0
# Processed by: cddbd v1.5.2PL0 Copyright (c) Steve Scherf et al.
# Submitted via: ExactAudioCopy v1.0b3
#
DISCID=6011d919
DTITLE=Frank Sinatra - Songs For You CD1
DYEAR=2011
DGENRE=Balladen
TTITLE0=Chicago
TTITLE1=Autumn Leaves
TTITLE2=Hey! Jealous Lover
TTITLE3=I'll Never Be The Same
TTITLE4=Makin' Whoopy
TTITLE5=I'm A Fool To Want You
TTITLE6=Blame It On My Youth
TTITLE7=Three Coins In The Fountain
TTITLE8=Me One And Only Love
TTITLE9=Get Happy
TTITLE10=Our Town
TTITLE11=We'll Be Tohether Again
TTITLE12=When Your Lover Has Gone
TTITLE13=Wrap Your Troubles In In Dreams
TTITLE14=I've Had My Moments
TTITLE15=Some Enchanted Evening
TTITLE16=No One Ever Tells You
TTITLE17=You're Getting To Be A Habit With Me
TTITLE18=Where Is The One?
TTITLE19=I'm Gonna Live 'til I Die
TTITLE20=It Never Entered My Mind
TTITLE21=If I Had You
TTITLE22=Baby, Won't You Please Come Home
TTITLE23=Nice Work If You Can Get It
TTITLE24=P.S. I Love You
EXTD=
EXTT0=
EXTT1=
EXTT2=
EXTT3=
EXTT4=
EXTT5=
EXTT6=
EXTT7=
EXTT8=
EXTT9=
EXTT10=
EXTT11=
EXTT12=
EXTT13=
EXTT14=
EXTT15=
EXTT16=
EXTT17=
EXTT18=
EXTT19=
EXTT20=
EXTT21=
EXTT22=
EXTT23=
EXTT24=
PLAYORDER=
